<mxfile host="65bd71144e" scale="3" border="0">
    <diagram id="LzTGRrPrDBO6Tm46XuKC" name="Page-1">
        <mxGraphModel dx="1503" dy="876" grid="0" gridSize="10" guides="1" tooltips="1" connect="1" arrows="1" fold="1" page="0" pageScale="1" pageWidth="1600" pageHeight="1200" math="0" shadow="0">
            <root>
                <mxCell id="0"/>
                <mxCell id="1" parent="0"/>
                <mxCell id="26" value="&amp;nbsp; &amp;nbsp;SIL" style="rounded=0;whiteSpace=wrap;html=1;fillColor=#f9f7ed;strokeColor=#36393d;dashed=1;align=left;fontSize=16;verticalAlign=top;" vertex="1" parent="1">
                    <mxGeometry x="416" y="29" width="484" height="493" as="geometry"/>
                </mxCell>
                <mxCell id="25" value="&amp;nbsp; &amp;nbsp;non-SIL" style="rounded=0;whiteSpace=wrap;html=1;fillColor=#f5f5f5;fontColor=#333333;strokeColor=#666666;dashed=1;align=left;verticalAlign=top;fontSize=16;" vertex="1" parent="1">
                    <mxGeometry x="-68" y="29" width="484" height="493" as="geometry"/>
                </mxCell>
                <mxCell id="16" style="edgeStyle=none;html=1;exitX=0.25;exitY=1;exitDx=0;exitDy=0;fontSize=17;" parent="1" source="3" target="15" edge="1">
                    <mxGeometry relative="1" as="geometry"/>
                </mxCell>
                <mxCell id="20" value="GPIO" style="edgeLabel;html=1;align=center;verticalAlign=middle;resizable=0;points=[];fontSize=17;" parent="16" vertex="1" connectable="0">
                    <mxGeometry x="-0.1684" y="-1" relative="1" as="geometry">
                        <mxPoint as="offset"/>
                    </mxGeometry>
                </mxCell>
                <mxCell id="3" value="MCU" style="rounded=0;whiteSpace=wrap;html=1;fillColor=#e1d5e7;strokeColor=#9673a6;container=0;fontSize=17;" parent="1" vertex="1">
                    <mxGeometry x="264" y="227" width="240" height="120" as="geometry"/>
                </mxCell>
                <mxCell id="13" style="edgeStyle=none;html=1;exitX=0;exitY=0.5;exitDx=0;exitDy=0;fontSize=17;" parent="1" source="4" target="12" edge="1">
                    <mxGeometry relative="1" as="geometry"/>
                </mxCell>
                <mxCell id="4" value="LED module" style="rounded=0;whiteSpace=wrap;html=1;fillColor=#ffe6cc;strokeColor=#d79b00;container=0;fontSize=17;" parent="1" vertex="1">
                    <mxGeometry x="664" y="76" width="160" height="70" as="geometry"/>
                </mxCell>
                <mxCell id="5" value="Simatic PLC" style="rounded=0;whiteSpace=wrap;html=1;fillColor=#d5e8d4;strokeColor=#82b366;container=0;fontSize=17;" parent="1" vertex="1">
                    <mxGeometry x="504" y="417" width="160" height="70" as="geometry"/>
                </mxCell>
                <mxCell id="9" style="edgeStyle=none;html=1;exitX=1;exitY=0.5;exitDx=0;exitDy=0;entryX=0;entryY=0.5;entryDx=0;entryDy=0;startArrow=classic;startFill=1;fontSize=17;" parent="1" source="6" target="3" edge="1">
                    <mxGeometry relative="1" as="geometry"/>
                </mxCell>
                <mxCell id="17" value="Ethernet" style="edgeLabel;html=1;align=center;verticalAlign=middle;resizable=0;points=[];fontSize=17;" parent="9" vertex="1" connectable="0">
                    <mxGeometry x="-0.2741" relative="1" as="geometry">
                        <mxPoint x="19" as="offset"/>
                    </mxGeometry>
                </mxCell>
                <mxCell id="6" value="Gateway" style="rounded=0;whiteSpace=wrap;html=1;fillColor=#dae8fc;strokeColor=#6c8ebf;container=0;fontSize=17;" parent="1" vertex="1">
                    <mxGeometry x="-13" y="252" width="160" height="70" as="geometry"/>
                </mxCell>
                <mxCell id="8" style="edgeStyle=orthogonalEdgeStyle;html=1;exitX=0;exitY=0.5;exitDx=0;exitDy=0;startArrow=classic;startFill=1;entryX=0.75;entryY=1;entryDx=0;entryDy=0;endArrow=none;endFill=0;fontSize=17;" parent="1" source="5" target="3" edge="1">
                    <mxGeometry relative="1" as="geometry">
                        <mxPoint x="454" y="367" as="targetPoint"/>
                    </mxGeometry>
                </mxCell>
                <mxCell id="19" value="GPIO" style="edgeLabel;html=1;align=center;verticalAlign=middle;resizable=0;points=[];fontSize=17;" parent="8" vertex="1" connectable="0">
                    <mxGeometry x="0.3131" y="-1" relative="1" as="geometry">
                        <mxPoint y="-20" as="offset"/>
                    </mxGeometry>
                </mxCell>
                <mxCell id="14" style="edgeStyle=orthogonalEdgeStyle;html=1;exitX=0;exitY=0.5;exitDx=0;exitDy=0;entryX=0.75;entryY=0;entryDx=0;entryDy=0;startArrow=classic;startFill=1;fontSize=17;" parent="1" source="12" target="3" edge="1">
                    <mxGeometry relative="1" as="geometry"/>
                </mxCell>
                <mxCell id="18" value="SPI" style="edgeLabel;html=1;align=center;verticalAlign=middle;resizable=0;points=[];fontSize=17;" parent="14" vertex="1" connectable="0">
                    <mxGeometry x="0.2063" y="1" relative="1" as="geometry">
                        <mxPoint as="offset"/>
                    </mxGeometry>
                </mxCell>
                <mxCell id="12" value="ADC module" style="rounded=0;whiteSpace=wrap;html=1;fillColor=#f8cecc;strokeColor=#b85450;container=0;fontSize=17;" parent="1" vertex="1">
                    <mxGeometry x="491" y="78.5" width="121" height="65" as="geometry"/>
                </mxCell>
                <mxCell id="15" value="LED&lt;br&gt;(user interface)" style="rounded=0;whiteSpace=wrap;html=1;fillColor=#fff2cc;strokeColor=#d6b656;container=0;fontSize=17;" parent="1" vertex="1">
                    <mxGeometry x="245" y="417" width="157" height="71" as="geometry"/>
                </mxCell>
                <mxCell id="21" value="CN0254" style="text;html=1;align=center;verticalAlign=middle;resizable=0;points=[];autosize=1;strokeColor=none;fillColor=none;fontSize=17;" parent="1" vertex="1">
                    <mxGeometry x="512.5" y="145" width="80" height="32" as="geometry"/>
                </mxCell>
                <mxCell id="22" value="Sitara AM243x" style="text;html=1;align=center;verticalAlign=middle;resizable=0;points=[];autosize=1;strokeColor=none;fillColor=none;fontSize=17;" parent="1" vertex="1">
                    <mxGeometry x="262" y="198" width="129" height="32" as="geometry"/>
                </mxCell>
            </root>
        </mxGraphModel>
    </diagram>
</mxfile>